<?xml version="1.0" encoding="UTF-8"?>
<svg width="400px" height="400px" viewBox="0 0 400 400" version="1.1" xmlns="http://www.w3.org/2000/svg" xmlns:xlink="http://www.w3.org/1999/xlink">
    <!-- Generator: Sketch 56.2 (81672) - https://sketch.com -->
    <title>2020-web-pre-reveal</title>
    <desc>Created with Sketch.</desc>
    <g id="2020-web-pre-reveal" stroke="none" stroke-width="1" fill="none" fill-rule="evenodd">
        <g id="2" fill="#FFFFFF">
            <path d="M200,160 L200,200 L0,200 C0,173.333333 0,160 0,160 C0,100 160,117.787448 160,70.8448764 C160,55.5699668 150.537303,40 100,40 C69.5768517,40 40,55.230795 40,80 C40,80 0,80 0,80 C0,43.774533 40,1.42108547e-14 100,1.42108547e-14 C179.362098,1.42108547e-14 200,40 200,70.8448764 C200,143.921456 40,140.734419 40,160 C40,160 93.3333333,160 200,160 Z" id="Path"></path>
        </g>
        <g id="0" transform="translate(200.000000, 0.000000)" fill="#FFFFFF">
            <path d="M100,200 C44.771525,200 0,155.228475 0,100 C0,44.771525 44.771525,0 100,0 C155.228475,0 200,44.771525 200,100 C200,155.228475 155.228475,200 100,200 Z M100,160 C133.137085,160 160,133.137085 160,100 C160,66.862915 133.137085,40 100,40 C66.862915,40 40,66.862915 40,100 C40,133.137085 66.862915,160 100,160 Z" id="Oval-2"></path>
        </g>
        <g id="2" transform="translate(0.000000, 200.000000)" fill="#FFFFFF">
            <path d="M200,160 L200,200 L0,200 C0,173.333333 0,160 0,160 C0,100 160,117.787448 160,70.8448764 C160,55.5699668 150.537303,40 100,40 C69.5768517,40 40,55.230795 40,80 C40,80 0,80 0,80 C0,43.774533 40,1.42108547e-14 100,1.42108547e-14 C179.362098,1.42108547e-14 200,40 200,70.8448764 C200,143.921456 40,140.734419 40,160 C40,160 93.3333333,160 200,160 Z" id="Path"></path>
        </g>
        <g id="0" transform="translate(200.000000, 200.000000)" fill="#FFFFFF">
            <path d="M100,200 C44.771525,200 0,155.228475 0,100 C0,44.771525 44.771525,0 100,0 C155.228475,0 200,44.771525 200,100 C200,155.228475 155.228475,200 100,200 Z M100,160 C133.137085,160 160,133.137085 160,100 C160,66.862915 133.137085,40 100,40 C66.862915,40 40,66.862915 40,100 C40,133.137085 66.862915,160 100,160 Z" id="Oval-2"></path>
        </g>
    </g>
</svg>