<svg height="761" viewBox="0 0 1280 761" width="1280" xmlns="http://www.w3.org/2000/svg"><g fill="none" fill-rule="evenodd"><g fill="#fff"><path d="m205 164v41h-205c0-27.333333 0-41 0-41 0-61.5 164-43.267866 164-91.3840017 0-15.6567823-9.699265-31.6159983-61.5-31.6159983-31.183727 0-61.5 15.6115649-61.5 41h-41c0-37.1311037 41-82 102.5-82 81.346151 0 102.5 41 102.5 72.6159983 0 74.9034937-164 71.6367817-164 91.3840017z" transform="translate(435 155)"/><path d="m205 164v41h-205c0-27.333333 0-41 0-41 0-61.5 164-43.267866 164-91.3840017 0-15.6567823-9.699265-31.6159983-61.5-31.6159983-31.183727 0-61.5 15.6115649-61.5 41h-41c0-37.1311037 41-82 102.5-82 81.346151 0 102.5 41 102.5 72.6159983 0 74.9034937-164 71.6367817-164 91.3840017z" transform="translate(435 357.186667)"/></g><g fill-rule="nonzero" transform="translate(482 57)"><path d="m48.3331407 7.84697651c-1.6289228-1.64225734-3.393963-3.14137727-5.2758992-4.4810342-5.063894-3.57750142-7.4383515-2.75943795-10.3761369.20146339l-3.8766653 3.90716879 10.1762464 10.25631801-1.2902027 1.3003547-10.1823037-10.2563181-3.8160924-3.84611928c-2.9620146-2.97921619-7.323263-3.79727966-11.5088501-1.22099024-4.80948783 2.9670063-7.26874737 5.36014718-10.33979316 10.42115172-2.28965543 3.7667549-2.70760841 7.6678188.24834887 10.6531399l3.49505605 3.5225569 4.64594104-4.6947075c3.5519415-3.4081572 9.1403149-3.3812081 12.6597351.0610495l10.1641318 10.2380032c2.8590726 2.8209916 7.4425977 2.7827906 10.2549912-.0854693l9.6916632-9.767922c2.7560667-2.7777528 2.5016605-7.2099474.1998905-10.4577814-1.4607952-2.0509508-3.089871-3.97466254-4.8700607-5.75086409zm-8.619523-2.40535078c.8002615.78020821 1.0534078 1.97045739.6407533 3.0127084-.4126546 1.04225101-1.4092941 1.72985947-2.5226518 1.74044547-1.1133577.0105861-2.1226912-.65794924-2.5547821-1.69216825-.432091-1.034219-.2012699-2.22906984.5842445-3.02435591 1.0534757-1.07738457 2.7728918-1.09375886 3.8463788-.03662971z" fill="#fff"/><path d="m49.2626553 29.597734-4.5216966 4.518223c-3.5508628 3.4683553-9.2104999 3.5111578-12.8134943.0969055l-10.1707869-10.1629733c-2.874113-2.7658198-7.4337607-2.7281434-10.2617056.0847924l-9.69800896 9.6905586c-2.75787128 2.7557526-1.98203057 6.7773344-.07879632 10.2538223 2.27493294 4.3418467 5.82089769 7.8872002 10.16472558 10.1629734 3.3094456 1.8169797 7.328058 2.8526581 10.267767-.0847924l3.8792035-3.8762235-10.1707868-10.1690299 1.2910474-1.2900556 10.1707869 10.1629733 5.0914546 5.0814867c2.9578928 2.961677 6.1218682 1.9986777 10.2495832-.0666226 4.2428789-2.1258663 7.2735067-5.2329017 10.3465633-10.3386147 2.2184195-3.6763557 3.0306278-7.267919.072735-10.2477657zm-30.2699103 18.8178535c.7970147.780148 1.0423488 1.9646374.6207058 2.9968089-.4216429 1.0321714-1.4264179 1.7067744-2.5421238 1.7067744s-2.1204809-.674603-2.5421239-1.7067744c-.4216429-1.0321715-.1763088-2.2166609.6207059-2.9968089.5093504-.5096544 1.2005955-.7960338 1.921418-.7960338.7208224 0 1.4120676.2863794 1.921418.7960338z" fill="#ffc619"/><g fill="#fff" transform="translate(68)"><path d="m17.3072727 38.8691489c-1.6956329.0644324-3.3907632-.1402407-5.0221454-.6063829-1.5829629-.4619713-3.10719525-1.1049549-4.54240003-1.9161703v20.2653192l-7.39050909-2.6438298v-46.63085106c.32913483-.43092614.69048348-.836341 1.08094546-1.21276595.91000318-.87835864 1.9307111-1.63461425 3.03636363-2.24968086 1.6589695-.92229585 3.41974707-1.6487734 5.24683637-2.16478723 2.49885216-.69646063 5.08156326-1.04739057 7.67592726-1.04297872 2.301935-.12094492 4.5898792.42440931 6.5889091 1.57053191 1.8271612 1.10495823 3.3685891 2.62335618 4.4998909 4.43265958 1.2251019 1.95994371 2.121489 4.10648233 2.6537818 6.35489363.5959738 2.4351431.893691 4.933525.8867413 7.4403191-.0005348 2.2379521-.2841509 4.4668833-.8442322 6.6338298-.5202167 2.0769245-1.4198814 4.0401302-2.6537818 5.7909575-1.2166272 1.7011182-2.7789419 3.126837-4.5849091 4.1840425-2.0207263 1.1467838-4.3071549 1.744733-6.6314182 1.7342553zm-.8805454-32.50212762c-.9963652-.05996393-1.9963208.00728135-2.9756364.20010638-.8542471.18300871-1.6959999.41997444-2.5201818.70946808-.6778823.22417452-1.33598986.50406889-1.96756365.83680852-.42458885.22196111-.83073064.47745555-1.21454545.76404255v21.68425529c1.21712781.6896528 2.4790132 1.2973875 3.7772364 1.819149 1.4485724.6049143 3.0183869.8644365 4.5849091.7579787 1.4477485-.030899 2.851065-.5050415 4.0201454-1.3582979 1.0144335-.8030476 1.8135732-1.8447824 2.3258546-3.0319149.5601635-1.2828132.914693-2.6456494 1.0505818-4.0385106.1576135-1.4885408.2366683-2.9843326.2368363-4.4811702-.0023075-1.5524131-.0955821-3.1033614-.2793454-4.6448936-.1642901-1.5029991-.5151528-2.9797595-1.0445091-4.3962766-.4620322-1.2672569-1.2197758-2.40636433-2.2104727-3.32297877-1.0461244-.91083424-2.3893012-1.40893592-3.7772364-1.40074468z"/><path d="m64.7717091 47.6980851c-.8061774 1.4971667-1.9318666 2.7992312-3.2974909 3.8141489-1.4196624 1.0575376-2.9736976 1.9221178-4.6213455 2.5710639-1.6995476.6722155-3.4638575 1.1680181-5.2650545 1.4795744-1.7253196.3109456-3.4705406.4993965-5.2225455.5639362l-1.2874182-5.2270213 3.5768364-.5214893c1.317931-.1883143 2.6207812-.4699823 3.8986909-.8428724 1.2391822-.3550148 2.4271535-.8686404 3.5343273-1.5280851 1.0482476-.6174673 1.9104494-1.5056375 2.4958909-2.5710638.6031183-1.298177.9199727-2.7105589.9291273-4.1415957.0769212-1.7423405.117406-3.2825532.1214545-4.6206383l.0789455-.1576596c-1.8042011.7341422-3.6751886 1.2925854-5.5869091 1.6675532-1.9748881.3631829-3.979645.5398141-5.9877091.5275532-1.4232471-.0060448-2.8354407-.2499472-4.1780364-.7215958-1.3987102-.4862336-2.7046614-1.2059149-3.8622545-2.1284042-1.1805838-.9401613-2.1525408-2.1151257-2.8541818-3.4503192-.7428393-1.4535373-1.1141766-3.0679461-1.0809455-4.6994681v-24.79499997l7.5605455-2.57106383v25.4680851c0 2.4012766.7368242 4.202234 2.2104727 5.4028723 1.6402614 1.2549205 3.6835553 1.8674419 5.7448 1.7221277 1.4135299-.0710873 2.8024022-.3977645 4.0990909-.9641489 1.2217769-.5009123 2.4050886-1.0906879 3.5404-1.7645745v-28.74255319h7.5423273v32.42936169c0 1.0247872-.0303637 2.1587234-.0789455 3.3896809-.0485818 1.2309574-.1518182 2.492234-.2854182 3.7535106-.1303929 1.2356832-.3331644 2.4626783-.6072727 3.6746809-.2266275 1.0708592-.6049144 2.1040092-1.1234545 3.0682978z"/><path d="m86.0323273 38.6326596c-2.2142143.0395586-4.3967799-.5288809-6.3095637-1.6432979-1.8416723-1.0849594-3.4314057-2.5483477-4.6638545-4.2931915-1.2821492-1.8085435-2.2605379-3.8136571-2.8966909-5.9364893-.6634155-2.161485-1.0011117-4.4094944-1.0020165-6.6702128-.0038722-3.3022938.6806706-6.5692425 2.0100892-9.5929787 1.2080238-2.91918386 3.2133739-5.44058397 5.7873091-7.27659578 1.2852122-.90811687 2.7258664-1.57395696 4.2509091-1.96468085 1.5861958-.40431473 3.2221674-.57992401 4.8581818-.52148937 1.734582.06377283 3.4525503.36158004 5.1071636.88531915 1.7552457.55402546 3.4295829 1.33695651 4.9796364 2.32851064l-2.4290909 4.49329787c-1.4572233-.71538868-2.9779009-1.29394234-4.5424-1.72819149-1.3424583-.38546109-2.7417501-.53523884-4.1355273-.44265957-1.3077786.09495156-2.5555037.58569535-3.5768363 1.40680851-1.0847481.87268162-1.9865389 1.95036026-2.6537819 3.17138299-.7554613 1.3673715-1.2980993 2.8415932-1.6092727 4.3720213-.3426749 1.5944673-.5177084 3.2203008-.5222545 4.8510638.0025698 1.5578862.2066833 3.1089138.6072727 4.6145745.3735199 1.4548541.9565043 2.8478816 1.7307273 4.1355319.7095375 1.1996093 1.6682877 2.2334597 2.8116727 3.0319149 1.1330293.7787287 2.4808655 1.1856663 3.8561818 1.1642553 1.7463545.0753067 3.4884119-.2266763 5.1071637-.8853192 1.5222303-.6346808 3.1173333-1.3562766 4.785309-2.1647872l2.1679637 4.4932979c-2.0157117 1.3044782-4.1915034 2.343904-6.4735273 3.0925532-2.3431731.7374447-4.7880622 1.1016967-7.2447636 1.0793617z"/><path d="m116.341309 38.547766c-2.554711.0684329-5.085033-.5115829-7.354073-1.6857447-2.014653-1.0871686-3.769452-2.5973531-5.1436-4.4265958-1.386761-1.874136-2.416045-3.9872436-3.036363-6.233617-.669538-2.3406419-1.0068264-4.7635209-1.0021851-7.1977659-.0096099-2.3642178.3699371-4.7139594 1.1236391-6.9552128.71663-2.16045171 1.835395-4.16634124 3.297491-5.91223406 1.444246-1.71423542 3.239559-3.09958371 5.265055-4.06276595 2.197162-1.01134434 4.595062-1.51302533 7.014-1.46744681 2.431062-.04239789 4.838645.48076436 7.032218 1.52808511 2.007652.97238157 3.787256 2.35678628 5.222545 4.06276595 1.447757 1.73291545 2.552364 3.72487908 3.254982 5.86978726.755766 2.2409081 1.137365 4.5906584 1.129646 6.9552127.005725 2.4347367-.333667 4.8580382-1.008191 7.197766-.634333 2.264302-1.682269 4.3920522-3.091018 6.2760638-1.398633 1.8511968-3.198583 3.3624322-5.265055 4.4205319-2.310308 1.1387028-4.863548 1.698552-7.439091 1.6311703zm.085018-32.18074472c-1.541662.03275806-3.044284.49022868-4.342 1.32191489-1.096843.74608694-2.005277 1.73621977-2.653782 2.89244683-.669467 1.2217692-1.117631 2.5519764-1.323854 3.9293617-.244959 1.4994833-.366819 3.0164443-.3644 4.5357447-.000941 1.7095296.147391 3.4158876.443345 5.0996808.262763 1.5846344.749383 3.1240211 1.445309 4.5721277.615994 1.3009499 1.54173 2.4314408 2.696291 3.2926595 1.218957.8596649 2.68666 1.2963487 4.178037 1.2430852 1.549647.0136456 3.065831-.4500716 4.342-1.3279788 1.14065-.845508 2.050941-1.9629417 2.647709-3.2502127.669843-1.4214131 1.118323-2.9366524 1.329927-4.4932979.242259-1.6748203.362006-3.3650382.358375-5.0572341.002718-1.522538-.143726-3.0416948-.43732-4.5357446-.26981-1.4065631-.766109-2.7601719-1.4696-4.0081915-.671091-1.17634799-1.606566-2.18102881-2.732728-2.93489364-1.256732-.78871063-2.700587-1.23023047-4.184109-1.27946808z"/><path d="m159.597345 37.905v-24.4796809c0-2.4255319-.69229-4.2446808-2.0708-5.45744676-1.378509-1.21276596-3.267127-1.81914894-5.653709-1.76457447-1.318037.04716786-2.619966.30512494-3.856181.76404256-1.101604.39422795-2.15165.91949947-3.127455 1.56446808v29.37319149h-7.396582v-30.98010638c1.506523-1.13050417 3.075786-2.17514629 4.700291-3.12893617 1.580837-.90080054 3.267867-1.6015118 5.022146-2.08595745 1.657827-.47186397 3.351778-.80650707 5.064654-1.00053191 2.068026-.23458095 4.161016-.11357457 6.188109.35776595 1.114448.26209414 2.194562.65280749 3.218546 1.16425532 1.001077.49905186 1.910597 1.16327892 2.690218 1.96468085.789203.82059138 1.428396 1.77284624 1.888618 2.81361702.504063 1.14571102.752711 2.38713224.728727 3.63829787v27.287234z"/></g><g fill="#ffc619"><path d="m250.313566 39c-1.64431-.0443617-3.264774-.3994591-4.773713-1.0460787-2.947327-1.2480742-5.295969-3.5670612-6.560004-6.4771735-.66055-1.5128386-.994119-3.145125-.979381-4.7925002.024417-1.6925245.39746-3.3624348 1.096414-4.9080554.654021-1.4189929 1.609906-2.6822535 2.802631-3.7038485 1.203682-1.0302229 2.596259-1.8230124 4.102313-2.3354316 1.606779-.5462242 3.296178-.8177222 4.995459-.8028046h8.62348v-2.4996416c.037531-1.6327083-.709427-3.18670269-2.014199-4.19039673-1.300818-1.06325641-2.943553-1.63267921-4.632041-1.6056092-1.571933-.01371992-3.137188.20355063-4.64436.64467642-1.738626.56540886-3.429524 1.26495142-5.057055 2.09215745l-2.118912-4.82899132c1.231926-.64467642 2.387883-1.19407048 3.467871-1.64818217 1.028175-.44645216 2.091059-.81051035 3.178368-1.0886517 1.045778-.26708425 2.107252-.47019863 3.178369-.6081853 1.150507-.13911675 2.308782-.20615129 3.467871-.20100852 1.540319.00449448 3.070313.24874765 4.533486.72404788 1.467333.46702088 2.832036 1.20369317 4.022238 2.17122154 1.180297.96418518 2.148676 2.15626973 2.845748 3.50314735.736906 1.46284812 1.104614 3.0799502 1.071776 4.7134361l.080075 20.4411081c-2.041131 1.9705841-4.431793 3.5538551-7.052775 4.6708631-3.047662 1.2803247-6.35061 1.8585297-9.658298 1.6907552zm9.12857-18.5131607-6.726315-.079064c-1.811021-.0829126-3.588134.5048705-4.98314 1.6481821-1.282704 1.131823-1.981652 2.7733751-1.903325 4.470162.006053 1.7893423.717428 3.5060615 1.9834 4.7864184 1.294178 1.412455 3.134157 2.2169508 5.063215 2.2137945 1.35744.0114237 2.700243-.2774365 3.929843-.8453776.949968-.3964137 1.837709-.9247905 2.636322-1.5691181z"/><path d="m284.032398 37.9978978c-1.427935-.0044234-2.847294-.2198835-4.211631-.6393297-1.393051-.4089646-2.697799-1.0715649-3.848036-1.9541776-1.176733-.9050237-2.147435-2.0479462-2.848153-3.3534652-.779994-1.4872753-1.165856-3.1480234-1.121081-4.8251299v-24.66847656l7.617294-2.55731884v25.2293979c0 2.4125649.751427 4.2481248 2.254282 5.5066795 1.638423 1.3112622 3.714314 1.957602 5.811444 1.8094237 1.295787-.0402057 2.57579-.2950027 3.787437-.7539266 1.098718-.4110943 2.152517-.9324855 3.145088-1.5561044v-29.19806717h7.380958v30.81448577c-2.546404 1.8756288-5.339944 3.3936911-8.302063 4.5114964-3.096177 1.1215402-6.370938 1.6753261-9.665539 1.6345127z"/></g></g></g></svg>