<?xml version="1.0" encoding="UTF-8"?>
<svg width="787px" height="220px" viewBox="0 0 787 220" version="1.1" xmlns="http://www.w3.org/2000/svg" xmlns:xlink="http://www.w3.org/1999/xlink">
    <!-- Generator: Sketch 63.1 (92452) - https://sketch.com -->
    <title>Logo_Standard_PyConline</title>
    <desc>Created with Sketch.</desc>
    <defs>
        <path d="M189.064,155.756 L189.064,122.492 C193.816,125.132 198.964,126.716 204.772,126.584 L204.772,126.452 C221.536,125.924 228.928,111.14 228.928,96.356 C228.796,79.592 221.668,63.62 204.904,63.884 C185.104,64.148 177.448,74.18 176.92,74.84 L176.92,151.4 L189.064,155.756 Z M189.064,112.988 L189.064,77.216 C190.78,75.764 196.456,72.86 203.32,73.124 L203.32,73.256 C213.616,73.652 215.332,86.06 215.332,95.96 C215.332,105.86 213.748,116.552 202.792,117.212 C197.776,117.608 192.364,114.968 189.064,112.988 Z M252.252,154.964 C263.076,154.7 277.332,151.004 282.48,141.104 L282.48,141.236 C285.516,135.56 285.912,125.132 285.912,118.532 L285.912,65.204 L273.504,65.204 L273.504,112.46 C270.336,114.44 265.32,116.816 260.964,116.948 C253.308,117.08 247.896,112.988 247.896,105.2 L247.896,63.224 L235.488,67.448 L235.488,108.236 C235.488,119.72 246.18,126.32 255.156,126.32 C262.152,126.32 267.96,125.264 274.164,122.756 L274.032,123.02 C274.032,127.376 274.032,134.108 272.316,137.408 C268.356,144.536 257.268,145.328 250.14,146.384 L252.252,154.964 Z M316.892,126.188 C325.472,126.188 332.6,123.68 339.464,119.324 L335.9,111.932 C330.488,114.572 325.868,117.08 319.664,116.948 C310.16,116.816 304.88,105.86 304.88,95.696 C304.748,85.004 309.764,73.52 318.608,72.992 C322.832,72.728 327.848,74.18 332.864,76.556 L336.824,69.164 C326.396,62.564 313.724,62.036 305.276,67.976 C296.96,73.784 292.472,84.74 292.472,95.696 C292.472,110.348 301.316,126.056 316.892,126.188 Z M395.564,93.98 C395.564,78.14 385.532,63.884 368.24,63.752 C350.948,63.62 340.784,78.14 340.784,93.98 C340.784,110.084 349.364,125.924 367.976,126.056 C386.72,126.188 395.564,110.084 395.564,93.98 Z M353.852,93.98 C353.852,83.9241277 356.436129,74.1266682 367.740317,73.1523583 L368.046,73.129 L368.330646,73.1488782 C379.009057,74.0049565 382.496,84.0584783 382.496,94.112 C382.364,105.2 379.988,117.08 368.24,117.344 C357.416,117.476 353.852,105.2 353.852,93.98 Z M414.3,125 L414.3,76.688 C417.072,74.84 421.296,72.992 425.652,72.86 C433.308,72.728 438.192,76.952 438.192,84.74 L438.192,125 L450.468,125 L450.468,80.12 C450.468,71.408 443.736,65.996 436.476,64.412 C429.348,62.828 422.748,64.148 417.996,65.468 C411.924,67.184 407.436,70.088 402.024,74.048 L402.024,125 L414.3,125 Z M481.812,125.792 L481.812,118.136 C474.42,117.872 471.516,116.42 471.516,109.952 L471.516,30.62 L459.768,34.448 L459.768,110.084 C459.768,121.04 467.82,127.112 481.812,125.792 Z M494.724,54.644 C499.212,54.644 502.776,51.08 502.776,46.592 C502.908,42.104 499.344,38.54 494.856,38.54 C490.368,38.54 486.804,42.104 486.804,46.592 L486.672,46.592 C486.672,51.08 490.236,54.644 494.724,54.644 Z M501.06,125 L501.06,62.96 L488.652,67.052 L488.784,125 L501.06,125 Z M522.672,125 L522.672,76.688 C525.444,74.84 529.668,72.992 534.024,72.86 C541.68,72.728 546.564,76.952 546.564,84.74 L546.564,125 L558.84,125 L558.84,80.12 C558.84,71.408 552.108,65.996 544.848,64.412 C537.72,62.828 531.12,64.148 526.368,65.468 C520.296,67.184 515.808,70.088 510.396,74.048 L510.396,125 L522.672,125 Z M602.672,124.472 C606.632,123.416 609.8,121.7 613.892,119.06 L610.46,112.064 C604.124,115.1 599.9,117.08 593.828,117.212 C584.72,117.476 577.592,109.16 578.12,95.564 L612.836,95.564 C612.572,76.292 606.632,64.28 589.604,64.28 C571.784,64.28 565.712,81.044 565.58,96.092 C565.448,105.992 569.408,115.364 575.876,120.908 C583.136,127.112 594.356,126.848 602.672,124.472 Z M600.428,87.116 L578.648,87.116 C579.572,79.46 582.74,72.86 590,72.86 C596.732,72.86 600.164,79.46 600.428,87.116 Z" id="path-1"></path>
        <path d="M639.452,126.056 L639.452,125.924 C651.2,126.188 660.44,121.568 666.512,115.496 L666.38,81.968 C666.38,70.352 656.216,63.62 646.316,63.752 C638.264,63.752 632.852,65.204 624.8,69.56 L628.232,77.48 C634.568,74.312 638.528,72.992 643.94,72.992 C649.484,72.992 654.632,76.952 654.632,82.496 L654.632,86.588 L640.64,86.588 L640.64,86.588 C629.156,86.588 619.652,93.848 619.52,105.86 C619.388,116.948 628.628,125.792 639.452,126.056 Z M643.676,117.08 C636.944,116.948 632.192,111.404 632.192,105.596 C632.192,99.392 636.812,95.432 643.412,95.564 L654.368,95.696 L654.368,113.12 C652.652,114.704 648.296,117.08 643.676,117.08 Z M694.492,126.056 C705.976,126.056 715.48,122.228 724.06,115.892 L724.06,64.94 L711.784,64.94 L711.784,113.252 C708.88,115.1 704.788,116.948 700.432,117.08 C692.776,117.212 687.232,112.724 687.232,104.936 L687.232,63.224 L674.692,67.448 L674.692,108.236 C674.692,120.644 685.516,126.056 694.492,126.056 Z" id="path-2"></path>
    </defs>
    <g id="Logo_Standard_PyConline" stroke="none" stroke-width="1" fill="none" fill-rule="evenodd">
        <g id="Logo_Standard" transform="translate(63.000000, 63.000000)" fill-rule="nonzero">
            <path d="M80,12.18 C77.3108058,9.4899583 74.3968949,7.03437778 71.29,4.84 C62.93,-1.02 59.01,0.32 54.16,5.17 L47.76,11.57 L64.56,28.37 L62.43,30.5 L45.62,13.7 L39.32,7.4 C34.43,2.52 27.23,1.18 20.32,5.4 C12.38,10.26 8.32,14.18 3.25,22.47 C-0.53,28.64 -1.22,35.03 3.66,39.92 L9.43,45.69 L17.1,38 C22.9639123,32.4173884 32.1897771,32.4615313 38,38.1 L54.78,54.87 C59.5000527,59.4908258 67.06701,59.428252 71.71,54.73 L87.71,38.73 C92.26,34.18 91.84,26.92 88.04,21.6 C85.6283681,18.2405125 82.9389213,15.0894443 80,12.18 Z M65.77,8.24 C67.0911545,9.51799254 67.5090746,11.4676382 66.8278218,13.1748607 C66.146569,14.8820832 64.5012134,16.008396 62.6631673,16.0257361 C60.8251212,16.0430762 59.1588092,14.9480055 58.4454688,13.2539395 C57.7321283,11.5598736 58.1131916,9.6026903 59.41,8.3 C61.1491868,6.53522821 63.9877767,6.50840689 65.76,8.24 L65.77,8.24 Z" id="path1948" fill="#00B259"></path>
            <path d="M81.29,49.37 L73.83,56.83 C67.9717043,62.5565724 58.6343037,62.6272433 52.69,56.99 L35.91,40.21 C31.1682217,35.6433782 23.6456091,35.7055852 18.98,40.35 L2.98,56.35 C-1.57,60.9 -0.29,67.54 2.85,73.28 C6.60323712,80.4487867 12.453452,86.3024901 19.62,90.06 C25.08,93.06 31.71,94.77 36.56,89.92 L42.96,83.52 L26.18,66.73 L28.31,64.6 L45.09,81.38 L53.49,89.77 C58.37,94.66 63.59,93.07 70.4,89.66 C77.4,86.15 82.4,81.02 87.47,72.59 C91.13,66.52 92.47,60.59 87.59,55.67 L81.29,49.37 Z M31.35,80.44 C32.6649333,81.7280958 33.0696913,83.6837963 32.3740549,85.388006 C31.6784185,87.0922156 30.0207174,88.206047 28.18,88.206047 C26.3392826,88.206047 24.6815815,87.0922156 23.9859451,85.388006 C23.2903087,83.6837963 23.6950667,81.7280958 25.01,80.44 C25.8503381,79.5985139 26.9907704,79.1256753 28.18,79.1256753 C29.3692296,79.1256753 30.5096619,79.5985139 31.35,80.44 Z" id="path1950" fill="#FFC619"></path>
        </g>
        <g id="pyconline" fill-rule="nonzero">
            <use fill="#FFFFFF" xlink:href="#path-1"></use>
            <use fill="#00B159" xlink:href="#path-1"></use>
        </g>
        <g id="au" fill-rule="nonzero">
            <use fill="#FFFFFF" xlink:href="#path-2"></use>
            <use fill="#FFC518" xlink:href="#path-2"></use>
        </g>
    </g>
</svg>
