<?xml version="1.0" encoding="UTF-8"?>
<svg width="626px" height="220px" viewBox="0 0 626 220" version="1.1" xmlns="http://www.w3.org/2000/svg" xmlns:xlink="http://www.w3.org/1999/xlink">
    <!-- Generator: Sketch 59.1 (86144) - https://sketch.com -->
    <title>Logo_Standard</title>
    <desc>Created with Sketch.</desc>
    <g id="Logo_Standard" stroke="none" stroke-width="1" fill="none" fill-rule="evenodd">
        <g transform="translate(63.000000, 63.000000)" fill-rule="nonzero">
            <path d="M80,12.18 C77.3108058,9.4899583 74.3968949,7.03437778 71.29,4.84 C62.93,-1.02 59.01,0.32 54.16,5.17 L47.76,11.57 L64.56,28.37 L62.43,30.5 L45.62,13.7 L39.32,7.4 C34.43,2.52 27.23,1.18 20.32,5.4 C12.38,10.26 8.32,14.18 3.25,22.47 C-0.53,28.64 -1.22,35.03 3.66,39.92 L9.43,45.69 L17.1,38 C22.9639123,32.4173884 32.1897771,32.4615313 38,38.1 L54.78,54.87 C59.5000527,59.4908258 67.06701,59.428252 71.71,54.73 L87.71,38.73 C92.26,34.18 91.84,26.92 88.04,21.6 C85.6283681,18.2405125 82.9389213,15.0894443 80,12.18 Z M65.77,8.24 C67.0911545,9.51799254 67.5090746,11.4676382 66.8278218,13.1748607 C66.146569,14.8820832 64.5012134,16.008396 62.6631673,16.0257361 C60.8251212,16.0430762 59.1588092,14.9480055 58.4454688,13.2539395 C57.7321283,11.5598736 58.1131916,9.6026903 59.41,8.3 C61.1491868,6.53522821 63.9877767,6.50840689 65.76,8.24 L65.77,8.24 Z" id="path1948" fill="#00B259"></path>
            <path d="M81.29,49.37 L73.83,56.83 C67.9717043,62.5565724 58.6343037,62.6272433 52.69,56.99 L35.91,40.21 C31.1682217,35.6433782 23.6456091,35.7055852 18.98,40.35 L2.98,56.35 C-1.57,60.9 -0.29,67.54 2.85,73.28 C6.60323712,80.4487867 12.453452,86.3024901 19.62,90.06 C25.08,93.06 31.71,94.77 36.56,89.92 L42.96,83.52 L26.18,66.73 L28.31,64.6 L45.09,81.38 L53.49,89.77 C58.37,94.66 63.59,93.07 70.4,89.66 C77.4,86.15 82.4,81.02 87.47,72.59 C91.13,66.52 92.47,60.59 87.59,55.67 L81.29,49.37 Z M31.35,80.44 C32.6649333,81.7280958 33.0696913,83.6837963 32.3740549,85.388006 C31.6784185,87.0922156 30.0207174,88.206047 28.18,88.206047 C26.3392826,88.206047 24.6815815,87.0922156 23.9859451,85.388006 C23.2903087,83.6837963 23.6950667,81.7280958 25.01,80.44 C25.8503381,79.5985139 26.9907704,79.1256753 28.18,79.1256753 C29.3692296,79.1256753 30.5096619,79.5985139 31.35,80.44 Z" id="path1950" fill="#FFC619"></path>
            <path d="M141.5,64.1 C138.70779,64.2062568 135.916408,63.8687257 133.23,63.1 C130.623325,62.3381527 128.113361,61.2777938 125.75,59.94 L125.75,93.36 L113.58,89 L113.58,12.1 C114.121988,11.3893499 114.717024,10.720771 115.36,10.1 C116.858508,8.65147875 118.539315,7.40432036 120.36,6.39 C123.091836,4.86902087 125.99132,3.67097018 129,2.82 C133.114876,1.67145089 137.367844,1.09272432 141.64,1.1 C145.430611,0.900546986 149.198184,1.79990309 152.49,3.69 C155.498798,5.51221181 158.037078,8.0162365 159.9,11 C161.917383,14.2321879 163.39347,17.7720937 164.27,21.48 C165.251394,25.4958501 165.741647,29.6159886 165.730203,33.75 C165.729322,37.4406578 165.262289,41.116439 164.34,44.69 C163.483356,48.1151035 162.001872,51.3526708 159.97,54.24 C157.966572,57.0453529 155.393898,59.3965383 152.42,61.14 C149.092457,63.0311873 145.32738,64.017279 141.5,64 L141.5,64.1 Z M140.05,10.5 C138.409279,10.4011121 136.762645,10.5120079 135.15,10.83 C133.743306,11.1318038 132.357186,11.5225894 131,12 C129.883727,12.3696913 128.800017,12.8312715 127.76,13.38 C127.060827,13.7460411 126.39203,14.1673829 125.76,14.64 L125.76,50.4 C127.764252,51.5373221 129.842207,52.5395512 131.98,53.4 C134.365374,54.397578 136.950398,54.8255621 139.53,54.65 C141.914017,54.5990437 144.224868,53.8171245 146.15,52.41 C147.820474,51.0856759 149.136423,49.3677273 149.98,47.41 C150.902425,45.2944835 151.486231,43.0469992 151.71,40.75 C151.969543,38.2952134 152.099723,35.8284691 152.1,33.36 C152.0962,30.7998802 151.942604,28.2421759 151.64,25.7 C151.369463,23.22137 150.791695,20.7860107 149.92,18.45 C149.159169,16.3601378 147.911387,14.4816098 146.28,12.97 C144.55734,11.4679225 142.345522,10.6464916 140.06,10.66 L140.05,10.5 Z" id="Shape" fill="#00B259"></path>
            <path d="M219.66,78.66 C218.332462,81.1290117 216.478783,83.276276 214.23,84.95 C211.892233,86.6940093 209.333193,88.1198082 206.62,89.19 C203.821344,90.298566 200.916043,91.1162054 197.95,91.63 C195.108905,92.1427875 192.235038,92.4535661 189.35,92.56 L187.23,83.94 L193.12,83.08 C195.290246,82.7694466 197.435658,82.3049415 199.54,81.69 C201.58057,81.104537 203.53681,80.2575052 205.36,79.17 C207.086156,78.1517206 208.50595,76.6870189 209.47,74.93 C210.463159,72.7891468 210.984925,70.4599555 211,68.1 C211.126667,65.2266667 211.193333,62.6866667 211.2,60.48 L211.33,60.22 C208.35901,61.4306907 205.278043,62.3516321 202.13,62.97 C198.877939,63.5689333 195.576692,63.8602197 192.27,63.84 C189.92633,63.8300315 187.600861,63.4278065 185.39,62.65 C183.086735,61.848141 180.936216,60.6612983 179.03,59.14 C177.085925,57.5895585 175.485397,55.651898 174.33,53.45 C173.106762,51.0529384 172.495278,48.3905802 172.55,45.7 L172.55,4.81 L185,0.57 L185,42.57 C185,46.53 186.213333,49.5 188.64,51.48 C191.341029,53.549518 194.705735,54.559641 198.1,54.32 C200.427669,54.2027684 202.714734,53.6640375 204.85,52.73 C206.861908,51.9039342 208.810475,50.9313217 210.68,49.82 L210.68,2.42 L223.1,2.42 L223.1,55.9 C223.1,57.59 223.05,59.46 222.97,61.49 C222.89,63.52 222.72,65.6 222.5,67.68 C222.285281,69.7177933 221.951376,71.741259 221.5,73.74 C221.126811,75.5059784 220.503883,77.2097696 219.65,78.8 L219.66,78.66 Z" id="Path" fill="#00B259"></path>
            <path d="M254.67,63.71 C251.023839,63.7752371 247.429794,62.8378105 244.28,61 C241.247306,59.2107686 238.629482,56.7974617 236.6,53.92 C234.488677,50.9374896 232.877557,47.6308111 231.83,44.13 C230.737549,40.5654458 230.181463,36.8582023 230.179973,33.13 C230.173596,27.6841119 231.300838,22.2965124 233.49,17.31 C235.479261,12.4959074 238.781484,8.33780895 243.02,5.31 C245.136367,3.81240376 247.508702,2.71435168 250.02,2.07 C252.631999,1.40323536 255.325964,1.1136341 258.02,1.21 C260.876348,1.31516922 263.705337,1.80628988 266.43,2.67 C269.320375,3.58365601 272.077517,4.87480547 274.63,6.51 L270.63,13.92 C268.230381,12.7402362 265.726271,11.7861302 263.15,11.07 C260.939365,10.4343273 258.635142,10.1873254 256.34,10.34 C254.186472,10.4965868 252.131835,11.3058836 250.45,12.66 C248.663738,14.0991592 247.178753,15.8763836 246.08,17.89 C244.835977,20.1449635 243.942411,22.5761361 243.43,25.1 C242.865715,27.7294725 242.577486,30.4106716 242.57,33.1 C242.574232,35.6691456 242.910347,38.2269807 243.57,40.71 C244.185078,43.1092332 245.145082,45.4065066 246.42,47.53 C247.5884,49.5083031 249.16718,51.2132494 251.05,52.53 C252.915767,53.8142192 255.135258,54.4853094 257.4,54.45 C260.275733,54.57419 263.144391,54.0761829 265.81,52.99 C268.316667,51.9433333 270.943333,50.7533333 273.69,49.42 L277.26,56.83 C273.940714,58.9812448 270.357824,60.6953856 266.6,61.93 C262.741481,63.146137 258.715466,63.7468333 254.67,63.71 Z" id="Path" fill="#00B259"></path>
            <path d="M304.58,63.57 C300.373141,63.6828543 296.206442,62.7263371 292.47,60.79 C289.152456,58.9971255 286.262818,56.5066459 284,53.49 C281.716411,50.3993196 280.021482,46.9145457 279,43.21 C277.897468,39.3499941 277.342053,35.354369 277.349696,31.34 C277.333871,27.4411146 277.958873,23.5661021 279.2,19.87 C280.380079,16.3071498 282.222357,12.9991917 284.63,10.12 C287.008249,7.29301527 289.964602,5.0084058 293.3,3.42 C296.918082,1.75216898 300.866719,0.924835423 304.85,1 C308.853246,0.930080671 312.817828,1.79283947 316.43,3.52 C319.736013,5.12357663 322.6665,7.40663001 325.03,10.22 C327.414031,13.0777904 329.232993,16.362783 330.39,19.9 C331.634524,23.5955327 332.262907,27.4705596 332.250195,31.37 C332.259622,35.3851797 331.700743,39.3815015 330.59,43.24 C329.54544,46.9741121 327.819797,50.4830335 325.5,53.59 C323.196862,56.6428508 320.232872,59.1350636 316.83,60.88 C313.0256,62.7578607 308.821164,63.6811207 304.58,63.57 L304.58,63.57 Z M304.72,10.5 C302.181334,10.5540221 299.706958,11.3084473 297.57,12.68 C295.763821,13.910389 294.267897,15.5432396 293.2,17.45 C292.097584,19.4648474 291.359589,21.6585225 291.02,23.93 C290.616624,26.4028322 290.415957,28.9044872 290.41994,31.41 C290.418391,34.2292242 290.662649,37.0432182 291.15,39.82 C291.582693,42.4332567 292.384013,44.9718944 293.53,47.36 C294.54436,49.5054262 296.068775,51.3697444 297.97,52.79 C299.977263,54.207693 302.394141,54.9278382 304.85,54.84 C307.401814,54.8625034 309.898524,54.0977767 312,52.65 C313.878316,51.2556534 315.377298,49.412868 316.36,47.29 C317.463034,44.9459154 318.201551,42.4470997 318.55,39.88 C318.948929,37.1180157 319.146118,34.3306387 319.140138,31.54 C319.144613,29.0291477 318.903464,26.5238716 318.42,24.06 C317.975703,21.7404047 317.158444,19.5081376 316,17.45 C314.89491,15.5100577 313.354458,13.8532157 311.5,12.61 C309.430531,11.3093193 307.052924,10.5811989 304.61,10.5 L304.72,10.5 Z" id="Shape" fill="#00B259"></path>
            <path d="M375.81,62.51 L375.81,22.14 C375.81,18.14 374.67,15.14 372.4,13.14 C370.13,11.14 367.02,10.14 363.09,10.23 C360.91958,10.3077856 358.775684,10.7331885 356.74,11.49 C354.925982,12.1401303 353.196865,13.0063675 351.59,14.07 L351.59,62.51 L339.41,62.51 L339.41,11.42 C341.890801,9.55565979 344.474916,7.83291665 347.15,6.26 C349.753174,4.77446929 352.531218,3.61891036 355.42,2.82 C358.149956,2.04183836 360.939395,1.48997079 363.76,1.17 C367.165432,0.783147211 370.611973,0.982701588 373.95,1.76 C375.785169,2.19222542 377.5638,2.83655972 379.25,3.68 C380.898481,4.5029978 382.396193,5.5983898 383.68,6.92 C384.979586,8.27325596 386.03215,9.84364116 386.79,11.56 C387.620043,13.4494182 388.029495,15.4966742 387.99,17.56 L387.99,62.56 L375.81,62.51 Z" id="Path" fill="#00B259"></path>
            <path d="M414.68,63.57 C412.010505,63.497059 409.379723,62.9131951 406.93,61.85 C402.145089,59.7978719 398.332128,55.9849106 396.28,51.2 C395.207615,48.7125368 394.666074,46.0286732 394.69,43.32 C394.729641,40.5370908 395.335266,37.7913646 396.47,35.25 C397.531787,32.9168413 399.083642,30.839743 401.02,29.16 C402.974147,27.4660707 405.234961,26.1625379 407.68,25.32 C410.288566,24.4218786 413.031262,23.9754719 415.79,24 L429.79,24 L429.79,19.89 C429.850932,17.2054427 428.638263,14.6503096 426.52,13 C424.408154,11.2517558 421.741217,10.3154905 419,10.36 C416.448006,10.3374412 413.906855,10.6946852 411.46,11.42 C408.637384,12.3496654 405.892254,13.4998783 403.25,14.86 L399.81,6.92 C401.81,5.86 403.686667,4.95666667 405.44,4.21 C407.109216,3.47592741 408.834782,2.87732994 410.6,2.42 C412.297794,1.98085054 414.021069,1.64688261 415.76,1.42 C417.627819,1.19125927 419.508249,1.08103868 421.39,1.08949461 C423.890669,1.09688459 426.374575,1.49849438 428.75,2.28 C431.132177,3.04789241 433.347737,4.25915531 435.28,5.85 C437.196182,7.43534772 438.76832,9.39541572 439.9,11.61 C441.096347,14.0152671 441.693312,16.6741641 441.64,19.36 L441.77,52.97 C438.456276,56.2101048 434.575098,58.8133755 430.32,60.65 C425.372198,62.7551556 420.009947,63.7058609 414.64,63.43 L414.68,63.57 Z M429.5,33.13 L418.58,33 C415.639853,32.8636722 412.754756,33.8301262 410.49,35.71 C408.407562,37.5709838 407.272838,40.2700824 407.4,43.06 C407.409826,46.0021004 408.564727,48.8247915 410.62,50.93 C412.721064,53.2524091 415.708223,54.5751898 418.84,54.57 C421.043769,54.5887833 423.223775,54.1138291 425.22,53.18 C426.762248,52.5282024 428.203473,51.6594265 429.5,50.6 L429.5,33.13 Z" id="Shape" fill="#FFC619"></path>
            <path d="M469.61,63.57 C467.253633,63.5626659 464.911419,63.2054361 462.66,62.51 C460.361198,61.8319422 458.208112,60.7333598 456.31,59.27 C454.368165,57.7694828 452.766319,55.8745329 451.61,53.71 C450.322859,51.2441178 449.686113,48.49062 449.76,45.71 L449.76,4.81 L462.33,0.57 L462.33,42.4 C462.33,46.4 463.57,49.4433333 466.05,51.53 C468.753712,53.704055 472.179333,54.7756776 475.64,54.53 C477.778298,54.4633396 479.890548,54.0408895 481.89,53.28 C483.703096,52.5984112 485.442067,51.7339516 487.08,50.7 L487.08,2.29 L499.26,2.29 L499.26,53.38 C495.057944,56.4897672 490.448065,59.0066939 485.56,60.86 C480.450711,62.7194986 475.046726,63.6376679 469.61,63.57 Z" id="Path" fill="#FFC619"></path>
        </g>
    </g>
</svg>