<?xml version="1.0" encoding="UTF-8" standalone="no"?>
<!DOCTYPE svg PUBLIC "-//W3C//DTD SVG 1.1//EN" "http://www.w3.org/Graphics/SVG/1.1/DTD/svg11.dtd">
<svg width="100%" height="100%" viewBox="0 0 1421 642" version="1.1" xmlns="http://www.w3.org/2000/svg" xmlns:xlink="http://www.w3.org/1999/xlink" xml:space="preserve" xmlns:serif="http://www.serif.com/" style="fill-rule:evenodd;clip-rule:evenodd;stroke-linejoin:round;stroke-miterlimit:1.41421;">
    <g transform="matrix(4.16667,0,0,4.16667,0,0)">
        <path d="M94.017,64.702C97.214,64.702 99.805,67.292 99.805,70.49C99.805,73.685 97.214,76.277 94.017,76.277C90.82,76.277 88.229,73.685 88.229,70.49C88.229,67.292 90.82,64.702 94.017,64.702Z" style="fill:rgb(215,216,217);fill-rule:nonzero;"/>
        <path d="M112.346,62.291C116.875,62.291 120.545,65.961 120.545,70.489C120.545,75.017 116.875,78.689 112.346,78.689C107.818,78.689 104.147,75.017 104.147,70.489C104.147,65.961 107.818,62.291 112.346,62.291Z" style="fill:rgb(215,216,217);fill-rule:nonzero;"/>
        <path d="M120.063,80.617C123.524,80.617 126.333,83.423 126.333,86.888C126.333,90.351 123.524,93.159 120.063,93.159C116.599,93.159 113.79,90.351 113.79,86.888C113.79,83.423 116.599,80.617 120.063,80.617Z" style="fill:rgb(215,216,217);fill-rule:nonzero;"/>
        <path d="M119.58,50.715C122.243,50.715 124.402,52.874 124.402,55.538C124.402,58.201 122.243,60.36 119.58,60.36C116.916,60.36 114.758,58.201 114.758,55.538C114.758,52.874 116.916,50.715 119.58,50.715Z" style="fill:rgb(215,216,217);fill-rule:nonzero;"/>
        <path d="M97.876,37.692C104.801,37.692 110.417,43.306 110.417,50.232C110.417,57.157 104.801,62.772 97.876,62.772C90.95,62.772 85.335,57.157 85.335,50.232C85.335,43.306 90.95,37.692 97.876,37.692Z" style="fill:rgb(215,216,217);fill-rule:nonzero;"/>
        <path d="M79.065,52.162C81.463,52.162 83.407,54.104 83.407,56.502C83.407,58.899 81.463,60.843 79.065,60.843C76.669,60.843 74.725,58.899 74.725,56.502C74.725,54.104 76.669,52.162 79.065,52.162Z" style="fill:rgb(215,216,217);fill-rule:nonzero;"/>
        <path d="M11.465,49.32C13.862,49.32 15.807,51.264 15.807,53.663C15.807,56.059 13.862,58.003 11.465,58.003C9.067,58.003 7.124,56.059 7.124,53.663C7.124,51.264 9.067,49.32 11.465,49.32Z" style="fill:rgb(215,216,217);fill-rule:nonzero;"/>
        <path d="M135.978,85.92C141.042,85.92 145.145,90.025 145.145,95.085C145.145,100.148 141.042,104.251 135.978,104.251C130.919,104.251 126.813,100.148 126.813,95.085C126.813,90.025 130.919,85.92 135.978,85.92Z" style="fill:rgb(183,209,52);fill-rule:nonzero;"/>
        <path d="M97.115,18.474C101.43,18.474 104.93,21.972 104.93,26.288C104.93,30.603 101.43,34.102 97.115,34.102C92.799,34.102 89.3,30.603 89.3,26.288C89.3,21.972 92.799,18.474 97.115,18.474Z" style="fill:rgb(242,109,88);fill-rule:nonzero;"/>
        <path d="M70.383,22.331C77.309,22.331 82.922,27.945 82.922,34.871C82.922,41.795 77.309,47.41 70.383,47.41C63.458,47.41 57.844,41.795 57.844,34.871C57.844,27.945 63.458,22.331 70.383,22.331Z" style="fill:rgb(215,216,217);fill-rule:nonzero;"/>
        <path d="M66.043,54.091C67.906,54.091 69.418,55.603 69.418,57.466C69.418,59.332 67.906,60.843 66.043,60.843C64.177,60.843 62.666,59.332 62.666,57.466C62.666,55.603 64.177,54.091 66.043,54.091Z" style="fill:rgb(215,216,217);fill-rule:nonzero;"/>
        <path d="M11.092,96.28C17.219,96.28 22.187,101.246 22.187,107.373C22.187,113.499 17.219,118.466 11.092,118.466C4.965,118.466 0,113.499 0,107.373C0,101.246 4.965,96.28 11.092,96.28Z" style="fill:rgb(215,216,217);fill-rule:nonzero;"/>
        <path d="M34.028,11.989C41.832,11.989 48.156,18.315 48.156,26.117C48.156,33.919 41.832,40.246 34.028,40.246C26.226,40.246 19.9,33.919 19.9,26.117C19.9,18.315 26.226,11.989 34.028,11.989Z" style="fill:rgb(140,206,205);fill-rule:nonzero;"/>
        <path d="M45.681,69.799C47.704,69.799 49.344,71.439 49.344,73.462C49.344,75.485 47.704,77.125 45.681,77.125C43.658,77.125 42.018,75.485 42.018,73.462C42.018,71.439 43.658,69.799 45.681,69.799Z" style="fill:rgb(215,216,217);fill-rule:nonzero;"/>
        <path d="M20.376,60.359C29.479,60.359 36.857,67.737 36.857,76.84C36.857,85.943 29.479,93.323 20.376,93.323C11.273,93.323 3.895,85.943 3.895,76.84C3.895,67.737 11.273,60.359 20.376,60.359Z" style="fill:rgb(252,225,21);fill-rule:nonzero;"/>
        <path d="M120.916,110.041C126.508,110.041 131.042,114.576 131.042,120.169C131.042,125.763 126.508,130.298 120.916,130.298C115.32,130.298 110.786,125.763 110.786,120.169C110.786,114.576 115.32,110.041 120.916,110.041Z" style="fill:rgb(215,216,217);fill-rule:nonzero;"/>
        <path d="M98.909,122.656C105.568,122.656 110.968,128.054 110.968,134.712C110.968,141.371 105.568,146.769 98.909,146.769C92.25,146.769 86.85,141.371 86.85,134.712C86.85,128.054 92.25,122.656 98.909,122.656Z" style="fill:rgb(244,120,33);fill-rule:nonzero;"/>
        <path d="M50.989,105.311C58.502,105.311 64.593,111.401 64.593,118.914C64.593,126.426 58.502,132.517 50.989,132.517C43.475,132.517 37.385,126.426 37.385,118.914C37.385,111.401 43.475,105.311 50.989,105.311Z" style="fill:rgb(215,216,217);fill-rule:nonzero;"/>
        <path d="M67.582,126.915C70.473,126.915 72.815,129.258 72.815,132.147C72.815,135.037 70.473,137.38 67.582,137.38C64.693,137.38 62.35,135.037 62.35,132.147C62.35,129.258 64.693,126.915 67.582,126.915Z" style="fill:rgb(215,216,217);fill-rule:nonzero;"/>
        <path d="M118.772,97.184C121.498,97.184 123.702,99.39 123.702,102.112C123.702,104.835 121.498,107.041 118.772,107.041C116.051,107.041 113.844,104.835 113.844,102.112C113.844,99.39 116.051,97.184 118.772,97.184Z" style="fill:rgb(215,216,217);fill-rule:nonzero;"/>
        <path d="M104.314,104.413C108.125,104.413 111.216,107.503 111.216,111.314C111.216,115.124 108.125,118.213 104.314,118.213C100.505,118.213 97.416,115.124 97.416,111.314C97.416,107.503 100.505,104.413 104.314,104.413Z" style="fill:rgb(215,216,217);fill-rule:nonzero;"/>
        <path d="M83.282,95.541C85.279,95.541 86.897,97.16 86.897,99.157C86.897,101.151 85.279,102.77 83.282,102.77C81.285,102.77 79.666,101.151 79.666,99.157C79.666,97.16 81.285,95.541 83.282,95.541Z" style="fill:rgb(215,216,217);fill-rule:nonzero;"/>
        <path d="M81.312,105.399C87.302,105.399 92.155,110.254 92.155,116.241C92.155,122.23 87.302,127.084 81.312,127.084C75.322,127.084 70.468,122.23 70.468,116.241C70.468,110.254 75.322,105.399 81.312,105.399Z" style="fill:rgb(215,216,217);fill-rule:nonzero;"/>
        <path d="M64.88,99.813C67.421,99.813 69.481,101.873 69.481,104.413C69.481,106.952 67.421,109.015 64.88,109.015C62.34,109.015 60.28,106.952 60.28,104.413C60.28,101.873 62.34,99.813 64.88,99.813Z" style="fill:rgb(215,216,217);fill-rule:nonzero;"/>
        <path d="M53.05,94.883C55.23,94.883 56.994,96.649 56.994,98.827C56.994,101.004 55.23,102.771 53.05,102.771C50.874,102.771 49.106,101.004 49.106,98.827C49.106,96.649 50.874,94.883 53.05,94.883Z" style="fill:rgb(215,216,217);fill-rule:nonzero;"/>
        <path d="M44.836,81.739C47.196,81.739 49.108,83.651 49.108,86.01C49.108,88.371 47.196,90.284 44.836,90.284C42.476,90.284 40.563,88.371 40.563,86.01C40.563,83.651 42.476,81.739 44.836,81.739Z" style="fill:rgb(215,216,217);fill-rule:nonzero;"/>
        <path d="M33.333,96.28C37.326,96.28 40.563,99.515 40.563,103.508C40.563,107.501 37.326,110.739 33.333,110.739C29.34,110.739 26.103,107.501 26.103,103.508C26.103,99.515 29.34,96.28 33.333,96.28Z" style="fill:rgb(215,216,217);fill-rule:nonzero;"/>
        <path d="M139.901,71.567C141.898,71.567 143.515,73.186 143.515,75.183C143.515,77.179 141.898,78.798 139.901,78.798C137.903,78.798 136.285,77.179 136.285,75.183C136.285,73.186 137.903,71.567 139.901,71.567Z" style="fill:rgb(215,216,217);fill-rule:nonzero;"/>
        <path d="M55.2,0.876C57.197,0.876 58.814,2.496 58.814,4.493C58.814,6.489 57.197,8.108 55.2,8.108C53.203,8.108 51.584,6.489 51.584,4.493C51.584,2.496 53.203,0.876 55.2,0.876Z" style="fill:rgb(215,216,217);fill-rule:nonzero;"/>
        <path d="M124.529,146.769C126.526,146.769 128.144,148.388 128.144,150.385C128.144,152.381 126.526,154 124.529,154C122.532,154 120.914,152.381 120.914,150.385C120.914,148.388 122.532,146.769 124.529,146.769Z" style="fill:rgb(215,216,217);fill-rule:nonzero;"/>
        <path d="M72.572,117.936C94.938,117.936 113.069,99.805 113.069,77.439C113.069,55.073 94.938,36.942 72.572,36.942C50.206,36.942 32.075,55.073 32.075,77.439C32.075,99.805 50.206,117.936 72.572,117.936Z" style="fill:white;fill-rule:nonzero;"/>
        <path d="M186.435,64.68L186.435,66.895L176.48,66.895L176.48,48.967L178.982,48.967L178.982,64.68L186.435,64.68Z" style="fill:rgb(78,78,80);fill-rule:nonzero;"/>
        <rect x="194.147" y="48.967" width="2.501" height="17.928" style="fill:rgb(78,78,80);fill-rule:nonzero;"/>
        <path d="M219.214,48.967L219.214,66.895L214.836,66.895L208.635,51.157L208.218,51.157L208.218,66.895L205.717,66.895L205.717,48.967L210.172,48.967L216.244,64.707L216.713,64.707L216.713,48.967L219.214,48.967Z" style="fill:rgb(78,78,80);fill-rule:nonzero;"/>
        <path d="M229.793,65.761C228.734,64.815 228.204,63.317 228.204,61.267L228.204,48.967L230.705,48.967L230.705,61.319C230.705,63.751 232,64.966 234.588,64.966C235.943,64.966 236.955,64.671 237.623,64.081C238.293,63.491 238.627,62.57 238.627,61.319L238.627,48.967L241.103,48.967L241.103,61.267C241.103,63.317 240.568,64.815 239.5,65.761C238.432,66.708 236.812,67.182 234.641,67.182C232.469,67.182 230.854,66.708 229.793,65.761Z" style="fill:rgb(78,78,80);fill-rule:nonzero;"/>
        <path d="M254.184,58.166L248.764,48.967L251.551,48.967L255.721,56.29L259.941,48.967L262.574,48.967L257.153,58.062L262.574,66.895L259.785,66.895L255.643,59.833L251.421,66.895L248.764,66.895L254.184,58.166Z" style="fill:rgb(78,78,80);fill-rule:nonzero;"/>
        <path d="M182.76,89.513L181.405,89.513L178.226,100.014L185.913,100.014L182.76,89.513ZM186.252,101.238L177.888,101.238L176.324,106.502L175.047,106.502L180.415,88.34L183.725,88.34L189.092,106.502L187.815,106.502L186.252,101.238Z" style="fill:rgb(78,78,80);fill-rule:nonzero;"/>
        <path d="M198.199,105.434C197.199,104.565 196.701,103.176 196.701,101.265L196.701,88.34L198.029,88.34L198.029,101.29C198.029,104.14 199.594,105.564 202.721,105.564C204.388,105.564 205.625,105.226 206.434,104.548C207.24,103.87 207.645,102.785 207.645,101.29L207.645,88.34L208.922,88.34L208.922,101.265C208.922,103.176 208.414,104.565 207.397,105.434C206.381,106.303 204.84,106.736 202.771,106.736C200.723,106.736 199.197,106.303 198.199,105.434Z" style="fill:rgb(78,78,80);fill-rule:nonzero;"/>
        <path d="M218.459,106.346L217.521,106.241L217.65,105.043C220.049,105.355 221.854,105.512 223.07,105.512C225.954,105.512 227.396,104.113 227.396,101.316C227.396,100.553 227.283,99.958 227.058,99.532C226.832,99.107 226.41,98.759 225.794,98.49C225.178,98.22 224.261,97.982 223.045,97.773C221.586,97.512 220.461,97.208 219.67,96.861C218.88,96.514 218.303,96.019 217.938,95.375C217.572,94.734 217.391,93.847 217.391,92.718C217.391,91.155 217.855,89.987 218.784,89.213C219.713,88.441 221.151,88.054 223.097,88.054C224.521,88.054 226.275,88.202 228.36,88.497L228.23,89.696C225.764,89.4 224.061,89.252 223.123,89.252C220.205,89.252 218.745,90.382 218.745,92.64C218.745,93.543 218.854,94.212 219.07,94.646C219.288,95.081 219.718,95.428 220.361,95.689C221.004,95.949 222.063,96.227 223.54,96.522C224.859,96.766 225.885,97.056 226.615,97.395C227.344,97.734 227.879,98.199 228.217,98.79C228.557,99.38 228.725,100.179 228.725,101.187C228.725,103.063 228.273,104.452 227.37,105.355C226.467,106.259 225.051,106.71 223.123,106.71C221.959,106.71 220.404,106.589 218.459,106.346Z" style="fill:rgb(78,78,80);fill-rule:nonzero;"/>
        <path d="M241.988,89.54L236.1,89.54L236.1,88.34L249.128,88.34L249.128,89.54L243.291,89.54L243.291,106.502L241.988,106.502L241.988,89.54Z" style="fill:rgb(78,78,80);fill-rule:nonzero;"/>
        <path d="M263.719,97.982C266.498,97.982 267.889,96.575 267.889,93.76C267.889,92.319 267.545,91.254 266.859,90.568C266.173,89.882 265.117,89.54 263.693,89.54L258.43,89.54L258.43,97.982L263.719,97.982ZM257.127,88.34L263.693,88.34C265.569,88.34 266.963,88.77 267.875,89.63C268.787,90.49 269.244,91.833 269.244,93.656C269.244,96.644 268.036,98.408 265.621,98.946L269.504,106.502L268.045,106.502L264.267,99.18L258.43,99.18L258.43,106.502L257.127,106.502L257.127,88.34Z" style="fill:rgb(78,78,80);fill-rule:nonzero;"/>
        <path d="M284.878,89.513L283.523,89.513L280.344,100.014L288.031,100.014L284.878,89.513ZM288.369,101.238L280.006,101.238L278.441,106.502L277.165,106.502L282.533,88.34L285.842,88.34L291.21,106.502L289.934,106.502L288.369,101.238Z" style="fill:rgb(78,78,80);fill-rule:nonzero;"/>
        <path d="M309.268,105.304L309.268,106.502L299.418,106.502L299.418,88.34L300.721,88.34L300.721,105.304L309.268,105.304Z" style="fill:rgb(78,78,80);fill-rule:nonzero;"/>
        <rect x="317.293" y="88.34" width="1.303" height="18.162" style="fill:rgb(78,78,80);fill-rule:nonzero;"/>
        <path d="M334.49,89.513L333.136,89.513L329.957,100.014L337.644,100.014L334.49,89.513ZM337.982,101.238L329.618,101.238L328.055,106.502L326.777,106.502L332.146,88.34L335.455,88.34L340.822,106.502L339.546,106.502L337.982,101.238Z" style="fill:rgb(78,78,80);fill-rule:nonzero;"/>
    </g>
</svg>
